<svg id="Capa_1" enable-background="new 0 0 512 512" height="512" viewBox="0 0 512 512" width="512" xmlns="http://www.w3.org/2000/svg"><g><g><path d="m174.799 98.865h162.402v92.473h-162.402z" fill="#fcca9f"/><path d="m312.19 98.862h25.01v92.48h-25.01z" fill="#fcb982"/><path d="m277.291 182.688h-42.582v-26.122c0-11.759 9.532-21.291 21.291-21.291 11.759 0 21.291 9.532 21.291 21.291z" fill="#35bcc7"/><path d="m357.88 192.692v48.41h-203.76v-48.41c0-5.523 4.477-10 10-10h183.76c5.523 0 10 4.477 10 10z" fill="#fb8627"/><path d="m357.88 192.692v48.41h-27.5v-48.41c0-5.52-4.48-10-10-10h27.5c5.52 0 10 4.48 10 10z" fill="#fb7722"/><path d="m322.52 241.102h-133.04l10.21-58.41h112.62z" fill="#fb7722"/><path d="m394.53 242.452v48.4h-277.06v-48.4c0-5.523 4.477-10 10-10h257.06c5.523 0 10 4.477 10 10z" fill="#fca863"/><path d="m394.53 242.452v48.4h-27.5v-48.4c0-5.52-4.48-10-10-10h27.5c5.52 0 10 4.48 10 10z" fill="#fc9744"/><path d="m331.21 290.852h-150.42l10.21-58.4h130z" fill="#fc9744"/><path d="m431.19 292.212v48.4h-350.38v-48.4c0-5.523 4.477-10 10-10h330.38c5.523 0 10 4.477 10 10z" fill="#fcb982"/><path d="m431.19 292.212v48.4h-27.5v-48.4c0-5.52-4.48-10-10-10h27.5c5.52 0 10 4.48 10 10z" fill="#fca863"/><path d="m339.91 340.612h-167.82l10.21-58.4h147.4z" fill="#fca863"/><path d="m467.84 341.962v48.41h-423.68v-48.41c0-5.523 4.477-10 10-10h403.68c5.523 0 10 4.477 10 10z" fill="#fcca9f"/><path d="m467.84 341.962v48.41h-27.5v-48.41c0-5.52-4.48-10-10-10h27.5c5.52 0 10 4.48 10 10z" fill="#fcb982"/><path d="m348.61 390.372h-185.22l10.21-58.41h164.8z" fill="#fcb982"/><path d="m504.5 391.722v38.41c0 5.523-4.477 10-10 10h-477c-5.523 0-10-4.477-10-10v-38.41c0-5.523 4.477-10 10-10h477c5.523 0 10 4.477 10 10z" fill="#ffe9d9"/><path d="m504.5 391.722v38.41c0 5.52-4.48 10-10 10h-27.5c5.52 0 10-4.48 10-10v-38.41c0-5.52-4.48-10-10-10h27.5c5.52 0 10 4.48 10 10z" fill="#fddbbf"/><path d="m357.3 440.132h-202.6l10.21-58.41h182.18z" fill="#fddbbf"/><path d="m347.333 71.865h-182.666c-2.761 0-5 2.239-5 5v22c0 2.761 2.239 5 5 5h182.667c2.761 0 5-2.239 5-5v-22c-.001-2.761-2.239-5-5.001-5z" fill="#fb4a59"/><path d="m352.33 76.862v22c0 2.76-2.24 5-5 5h-25.01c2.77 0 5-2.24 5-5v-22c0-2.76-2.23-5-5-5h25.01c2.76 0 5 2.24 5 5z" fill="#f82f40"/><path d="m337 440.132h-162l45-257.44h72z" fill="#fb4a59"/><g fill="#c21d2c"><path d="m331.9 410.932h-151.8l5.11-29.21h141.58z"/><path d="m321.69 352.522h-131.38l5.11-29.2h121.16z"/><path d="m311.48 294.112h-110.96l5.11-29.2h100.74z"/><path d="m301.27 235.702h-90.54l5.11-29.2h80.32z"/></g></g><g><path d="m494.5 374.226h-19.156v-32.259c0-9.649-7.851-17.5-17.5-17.5h-19.156v-32.26c0-9.649-7.851-17.5-17.5-17.5h-19.155v-32.259c0-9.649-7.851-17.5-17.5-17.5h-19.156v-32.259c0-9.649-7.851-17.5-17.5-17.5h-3.175v-16.355c0-4.142-3.357-7.5-7.5-7.5s-7.5 3.358-7.5 7.5v16.355h-44.91v-18.622c0-15.875-12.916-28.791-28.791-28.791s-28.791 12.916-28.791 28.791v18.622h-44.91v-63.823h147.402v13.468c0 4.142 3.357 7.5 7.5 7.5s7.5-3.358 7.5-7.5v-13.468h2.632c6.893 0 12.5-5.607 12.5-12.5v-22c0-6.893-5.607-12.5-12.5-12.5h-182.667c-6.893 0-12.5 5.607-12.5 12.5v22c0 6.893 5.607 12.5 12.5 12.5h2.632v63.823h-3.175c-9.649 0-17.5 7.851-17.5 17.5v32.259h-19.156c-9.649 0-17.5 7.851-17.5 17.5v32.259h-19.155c-9.649 0-17.5 7.851-17.5 17.5v32.26h-19.157c-9.649 0-17.5 7.851-17.5 17.5v32.259h-19.156c-9.649 0-17.5 7.851-17.5 17.5v38.409c0 9.649 7.851 17.5 17.5 17.5h477c9.649 0 17.5-7.851 17.5-17.5v-38.409c0-9.649-7.851-17.5-17.5-17.5zm-327.333-294.861h177.666v17h-177.666zm256.521 212.842v32.26h-99.292l-6.076-34.76h102.868c1.378 0 2.5 1.122 2.5 2.5zm-221.966 38.61h108.556l2.483 14.205h-113.522zm10.209-58.409h88.138l2.483 14.204h-93.103zm-5.104 29.204h98.347l2.483 14.205h-103.313zm90.62-44.204h-82.894l2.483-14.205h77.928zm-100.83 102.613h118.766l2.483 14.205h-123.732zm95.725-131.817h-72.684l2.483-14.205h67.718zm-100.83 161.022h128.975l2.483 14.205h-133.94zm195.52-146.778v32.259h-71.334l-6.076-34.759h74.91c1.379 0 2.5 1.121 2.5 2.5zm-36.656-49.76v32.259h-43.376l-6.076-34.759h46.952c1.379 0 2.5 1.122 2.5 2.5zm-108.167-36.121c0-7.604 6.187-13.791 13.791-13.791s13.791 6.187 13.791 13.791v18.622h-27.582zm43.488 33.621 1.54 8.811h-62.475l1.54-8.811zm-124.073 2.5c0-1.378 1.121-2.5 2.5-2.5h46.952l-6.076 34.76h-43.376zm-73.311 99.519c0-1.378 1.121-2.5 2.5-2.5h55.854c4.143 0 7.5-3.358 7.5-7.5s-3.357-7.5-7.5-7.5h-21.698v-32.259c0-1.378 1.121-2.5 2.5-2.5h74.91l-6.076 34.759h-15.635c-4.143 0-7.5 3.358-7.5 7.5s3.357 7.5 7.5 7.5h13.013l-6.076 34.76h-99.292zm-36.657 49.76c0-1.378 1.121-2.5 2.5-2.5h130.826l-6.076 34.759h-127.25zm-36.656 88.168v-38.409c0-1.378 1.121-2.5 2.5-2.5h158.785l-7.588 43.409h-151.197c-1.379 0-2.5-1.122-2.5-2.5zm168.925 2.5 2.483-14.204h139.185l2.483 14.204zm313.075-2.5c0 1.378-1.121 2.5-2.5 2.5h-151.198l-7.588-43.409h55.618c4.143 0 7.5-3.358 7.5-7.5s-3.357-7.5-7.5-7.5h-58.24l-6.076-34.759h130.826c1.379 0 2.5 1.122 2.5 2.5v32.259h-35.01c-4.143 0-7.5 3.358-7.5 7.5s3.357 7.5 7.5 7.5h69.168c1.379 0 2.5 1.122 2.5 2.5z"/><path d="m110.811 117.649h.043c4.142-.023 7.48-3.399 7.458-7.542l-.013-2.284c-.023-4.128-3.376-7.458-7.499-7.458-.015 0-.028 0-.043 0-4.142.023-7.48 3.399-7.458 7.542l.013 2.284c.023 4.128 3.376 7.458 7.499 7.458z"/><path d="m110.726 150.296h.046c4.142-.025 7.479-3.403 7.455-7.545l-.014-2.284c-.024-4.127-3.378-7.455-7.499-7.455-.016 0-.03 0-.046 0-4.142.025-7.479 3.403-7.455 7.545l.014 2.284c.024 4.127 3.377 7.455 7.499 7.455z"/><path d="m125.975 132.88h.044l2.278-.013c4.143-.024 7.48-3.401 7.457-7.543-.024-4.142-3.361-7.449-7.543-7.457l-2.278.013c-4.143.024-7.48 3.401-7.457 7.543.024 4.128 3.377 7.457 7.499 7.457z"/><path d="m93.271 132.794h.043l2.278-.013c4.142-.023 7.481-3.4 7.458-7.542-.023-4.128-3.376-7.458-7.499-7.458-.015 0-.028 0-.043 0l-2.278.013c-4.142.023-7.481 3.4-7.458 7.542.023 4.128 3.375 7.458 7.499 7.458z"/><path d="m401.286 117.649h.046c4.142-.025 7.479-3.403 7.455-7.545l-.014-2.284c-.024-4.127-3.378-7.455-7.499-7.455-.016 0-.03 0-.046 0-4.142.025-7.479 3.403-7.455 7.545l.014 2.284c.025 4.127 3.378 7.455 7.499 7.455z"/><path d="m401.2 150.296h.043c4.142-.023 7.48-3.399 7.458-7.542l-.013-2.284c-.023-4.128-3.376-7.458-7.499-7.458-.015 0-.028 0-.043 0-4.142.023-7.48 3.399-7.458 7.542l.013 2.284c.024 4.127 3.376 7.458 7.499 7.458z"/><path d="m416.449 132.88h.044l2.278-.013c4.143-.024 7.48-3.401 7.457-7.543-.024-4.142-3.438-7.449-7.543-7.457l-2.278.013c-4.143.024-7.48 3.401-7.457 7.543.025 4.128 3.377 7.457 7.499 7.457z"/><path d="m383.745 132.794h.043l2.278-.013c4.142-.023 7.481-3.4 7.458-7.542-.023-4.128-3.376-7.458-7.499-7.458-.015 0-.028 0-.043 0l-2.278.013c-4.142.023-7.481 3.4-7.458 7.542.024 4.128 3.376 7.458 7.499 7.458z"/></g></g></svg>