<svg height="512pt" viewBox="0 0 512 512" width="512pt" xmlns="http://www.w3.org/2000/svg"><path d="m504.5 37.5v437c0 16.570312-13.429688 30-30 30h-437c-16.570312 0-30-13.429688-30-30v-437c0-16.570312 13.429688-30 30-30h437c16.570312 0 30 13.429688 30 30zm0 0" fill="#deefff"/><path d="m69.839844 504.5h-32.339844c-16.570312 0-30-13.429688-30-30v-437c0-16.570312 13.429688-30 30-30h32.339844c-16.570313 0-30 13.429688-30 30v437c0 16.570312 13.429687 30 30 30zm0 0" fill="#f0f8ff"/><path d="m504.5 37.5v437c0 16.570312-13.429688 30-30 30h-193.199219c148.109375-170.640625 164.988281-408.660156 165.820313-497h27.378906c16.570312 0 30 13.429688 30 30zm0 0" fill="#b8daef"/><path d="m425.859375 254.980469c.332031 56.699219-26.800781 106.878906-69.019531 137.949219-8.390625 6.171874-17.371094 11.589843-26.851563 16.148437-21.839843 10.523437-46.328125 16.511719-72.269531 16.773437-32.480469.320313-62.878906-8.480468-88.808594-24l-53.851562 9.796876c-6.867188 1.25-12.878906-4.757813-11.628906-11.628907l9.53125-52.378906c-17.339844-27-27.242188-59.230469-26.8125-93.800781 1.140624-91.898438 78.902343-168.210938 170.800781-167.699219 74.878906.398437 138.289062 49.269531 160.460937 116.820313 1.519532 4.640624 2.859375 9.367187 3.980469 14.179687 2.847656 12.160156 4.390625 24.828125 4.46875 37.839844zm0 0" fill="#5bdc67"/><path d="m425.859375 254.980469c.332031 56.699219-26.800781 106.878906-69.019531 137.949219 30.691406-58.550782 51.070312-119.300782 64.550781-175.789063 2.847656 12.160156 4.390625 24.828125 4.46875 37.839844zm0 0" fill="#1fc474"/><path d="m163.40625 173.394531c-.308594 3.941407-1.847656 7.65625-3.886719 11.046875-3.753906 6.234375-4.605469 14.105469-1.621093 21.347656 13.746093 33.320313 33.734374 63.234376 59.40625 88.910157 25.671874 25.671875 55.585937 45.65625 88.90625 59.402343 7.242187 2.988282 15.113281 2.132813 21.347656-1.617187 3.390625-2.039063 7.105468-3.582031 11.050781-3.890625 5.335937-.417969 10.199219-4.246094 11.371094-10.0625l5.671875-28.117188c1.066406-5.292968-1.320313-10.6875-5.960938-13.457031l-25.035156-14.949219c-4.636719-2.773437-10.519531-2.316406-14.675781 1.136719l-14.84375 12.332031c-15.996094-9.527343-30.785157-21.039062-44.175781-34.429687-13.398438-13.398437-24.910157-28.183594-34.433594-44.183594l12.328125-14.84375c3.453125-4.15625 3.910156-10.035156 1.140625-14.671875l-14.949219-25.039062c-2.773437-4.636719-8.164063-7.027344-13.460937-5.957032l-28.117188 5.671876c-5.816406 1.171874-9.640625 6.03125-10.0625 11.371093zm0 0" fill="#deefff"/><path d="m474.5 512h-437c-20.679688 0-37.5-16.820312-37.5-37.5v-437c0-20.679688 16.820312-37.5 37.5-37.5h99.238281c4.144531 0 7.5 3.359375 7.5 7.5s-3.355469 7.5-7.5 7.5h-99.238281c-12.40625 0-22.5 10.09375-22.5 22.5v437c0 12.40625 10.09375 22.5 22.5 22.5h437c12.40625 0 22.5-10.09375 22.5-22.5v-437c0-12.40625-10.09375-22.5-22.5-22.5h-303.238281c-4.144531 0-7.5-3.359375-7.5-7.5s3.355469-7.5 7.5-7.5h303.238281c20.679688 0 37.5 16.820312 37.5 37.5v437c0 20.679688-16.820312 37.5-37.5 37.5zm0 0"/><path d="m315.253906 363.714844c-4.042968 0-8.09375-.777344-11.902344-2.351563-34.238281-14.121093-64.972656-34.652343-91.347656-61.03125-26.375-26.375-46.910156-57.109375-61.035156-91.351562-3.761719-9.117188-2.96875-19.613281 2.121094-28.074219 1.726562-2.867188 2.65625-5.410156 2.839844-7.769531.703124-8.914063 7.304687-16.371094 16.054687-18.136719l28.121094-5.671875c8.394531-1.6875 16.988281 2.113281 21.378906 9.464844l14.953125 25.039062c4.390625 7.351563 3.664062 16.722657-1.808594 23.3125l-8.902344 10.714844c8.648438 13.746094 18.90625 26.582031 30.535157 38.210937 11.632812 11.632813 24.46875 21.886719 38.210937 30.535157l10.71875-8.898438c6.585938-5.476562 15.957032-6.203125 23.3125-1.808593l25.035156 14.949218c7.351563 4.390625 11.15625 12.980469 9.464844 21.378906l-5.671875 28.121094c-1.765625 8.75-9.222656 15.351563-18.136719 16.054688-2.359374.183594-4.902343 1.113281-7.769531 2.839844-4.929687 2.964843-10.542969 4.472656-16.171875 4.472656zm-144.367187-189.402344c-.375 4.734375-1.988281 9.417969-4.941407 14.328125-2.691406 4.476563-3.097656 9.804687-1.109374 14.621094 13.363281 32.402343 32.804687 61.496093 57.773437 86.464843s54.058594 44.40625 86.460937 57.769532c4.820313 1.988281 10.148438 1.585937 14.621094-1.109375 4.910156-2.949219 9.597656-4.566407 14.328125-4.9375 1.917969-.152344 4.085938-1.46875 4.609375-4.066407l5.671875-28.117187c.4375-2.175781-.546875-4.402344-2.453125-5.539063l-25.035156-14.949218c-1.90625-1.136719-4.332031-.949219-6.039062.46875l-14.84375 12.332031c-2.445313 2.03125-5.902344 2.296875-8.628907.675781-16.519531-9.835937-31.875-21.804687-45.644531-35.574218-13.769531-13.769532-25.742188-29.128907-35.574219-45.644532-1.625-2.730468-1.355469-6.1875.675781-8.628906l12.332032-14.847656c1.417968-1.703125 1.605468-4.128906.46875-6.035156l-14.953125-25.035157c-1.136719-1.90625-3.363281-2.890625-5.535157-2.453125l-28.117187 5.671875c-2.601563.523438-3.917969 2.691407-4.066406 4.605469zm0 0"/><path d="m275.585938 432.585938c-3.765626 0-7.007813-2.828126-7.441407-6.65625-.46875-4.113282 2.488281-7.828126 6.601563-8.296876 82.363281-9.355468 144.105468-79.121093 143.613281-162.277343-.203125-34.476563-11.078125-67.351563-31.453125-95.070313-2.453125-3.339844-1.734375-8.03125 1.601562-10.484375 3.339844-2.453125 8.03125-1.738281 10.484376 1.601563 22.261718 30.289062 34.148437 66.203125 34.367187 103.867187.535156 90.835938-66.925781 167.042969-156.917969 177.265625-.289062.035156-.574218.050782-.855468.050782zm0 0"/><path d="m241.082031 433.03125c-.21875 0-.4375-.007812-.660156-.027344-25.945313-2.265625-50.457031-9.976562-72.90625-22.933594l-51.113281 9.289063c-5.648438 1.027344-11.445313-.78125-15.503906-4.839844-4.0625-4.0625-5.871094-9.859375-4.84375-15.507812l9-49.507813c-17.703126-28.621094-26.824219-61.550781-26.402344-95.425781.578125-46.433594 19.617187-90.382813 53.609375-123.757813 33.753906-33.136718 77.679687-51.351562 123.769531-51.351562.320312 0 .636719.003906.957031.003906 43.609375.238282 85.449219 16.457032 117.8125 45.667969 3.074219 2.773437 3.316407 7.515625.539063 10.59375-2.773438 3.074219-7.519532 3.316406-10.59375.539063-29.621094-26.738282-67.917969-41.582032-107.839844-41.800782-42.503906-.214844-82.992188 16.476563-114.136719 47.054688-31.148437 30.578125-48.59375 70.792968-49.121093 113.238281-.394532 31.929687 8.460937 62.933594 25.617187 89.65625 1.023437 1.597656 1.40625 3.527344 1.066406 5.394531l-9.523437 52.378906c-.203125 1.121094.347656 1.871094.695312 2.214844.34375.347656 1.089844.898438 2.214844.691406l53.851562-9.789062c1.789063-.328125 3.632813.007812 5.191407.941406 21.148437 12.65625 44.351562 20.160156 68.960937 22.304688 4.125.359375 7.179688 3.996094 6.820313 8.121094-.339844 3.90625-3.613281 6.851562-7.460938 6.851562zm0 0"/></svg>